<?xml version="1.0"?>
<svg xmlns="http://www.w3.org/2000/svg" height="512px" viewBox="0 0 512 512" width="512px" class=""><g><path d="m492 0h-472c-11.046875 0-20 8.953125-20 20v346.648438c0 11.042968 8.953125 20 20 20h83.550781c2.96875 10.042968 8.113281 19.160156 14.890625 26.804687-25.230468 17.03125-41.851562 45.882813-41.851562 78.546875 0 11.046875 8.953125 20 20 20h318.820312c11.046875 0 20-8.953125 20-20 0-32.664062-16.621094-61.515625-41.851562-78.546875 6.777344-7.644531 11.921875-16.761719 14.890625-26.804687h83.550781c11.046875 0 20-8.957032 20-20v-346.648438c0-11.046875-8.953125-20-20-20zm-371.625 472c8.003906-20.300781 27.8125-34.703125 50.921875-34.703125 23.105469 0 42.917969 14.402344 50.917969 34.703125zm20.273438-105.351562c0-16.902344 13.746093-30.648438 30.644531-30.648438 16.898437 0 30.648437 13.746094 30.648437 30.648438 0 16.898437-13.75 30.644531-30.648437 30.644531-16.898438 0-30.644531-13.746094-30.644531-30.644531zm115.351562 83.03125c-7.34375-14.640626-18.363281-27.125-31.851562-36.226563 6.777343-7.644531 11.921874-16.761719 14.890624-26.804687h33.917969c2.972657 10.042968 8.113281 19.160156 14.890625 26.804687-13.484375 9.101563-24.503906 21.585937-31.847656 36.226563zm33.785156 22.320312c8-20.300781 27.8125-34.703125 50.917969-34.703125 23.109375 0 42.917969 14.402344 50.921875 34.703125zm20.273438-105.351562c0-16.902344 13.746094-30.648438 30.644531-30.648438 16.902344 0 30.648437 13.746094 30.648437 30.648438 0 16.898437-13.746093 30.644531-30.648437 30.644531-16.898437 0-30.644531-13.746094-30.644531-30.644531zm161.941406-20h-63.550781c-8.644531-29.242188-35.734375-50.648438-67.746094-50.648438-32.007813 0-59.097656 21.40625-67.742187 50.648438h-33.917969c-8.648438-29.242188-35.738281-50.648438-67.746094-50.648438-32.011719 0-59.101563 21.40625-67.746094 50.648438h-63.550781v-306.648438h432zm-269.730469-72.757813 125.351563-62.675781c14.707031-7.355469 14.726562-28.417969 0-35.777344l-125.351563-62.679688c-13.277343-6.632812-28.945312 3.023438-28.945312 17.890626v125.351562c0 14.941406 15.769531 24.476562 28.945312 17.890625zm11.054688-110.882813 60.628906 30.316407-60.628906 30.316406zm0 0" data-original="#000000" class="active-path" data-old_color="#000000" fill="#FE5E00"/></g> </svg>
